<svg xmlns="http://www.w3.org/2000/svg" viewBox="0 0 79.375 79.375">
    <g fill="#313139">
        <path d="M12.948 20.419a.494.494 0 00-.376.21c-.013.018-.022.04-.035.058a33.145 33.145 0 00-4.11 8.068c-.008.022-.02.042-.027.064a.494.494 0 00.907.385l4.11-8.068a.494.494 0 00-.469-.718zm55.298 3.003a.494.494 0 00-.448.665l3.333 8.93a.494.494 0 00.945-.275c-.005-.024-.016-.046-.02-.07a33.135 33.135 0 00-3.328-8.922l-.004-.008c-.012-.021-.02-.045-.03-.066a.494.494 0 00-.448-.254zm1.332 29.337a.494.494 0 00-.432.26c-1.703 3.085-3.019 5.382-5.6 8.246-4.651 5.142-10.59 8.39-16.878 9.783-.13-3.76-3.188-6.793-6.98-6.793-3.796 0-6.856 3.038-6.98 6.803-5.264-1.166-10.31-3.636-14.596-7.51l-.002-.003c-1.784-1.626-2.889-2.682-4.25-4.631a.494.494 0 10-.81.565c1.41 2.02 2.604 3.163 4.396 4.797a.494.494 0 00.002.002 33.001 33.001 0 0015.624 7.9.494.494 0 00.59-.516 6.032 6.032 0 016.026-6.42 6.032 6.032 0 016.039 6.038c-.003.125-.01.25-.02.374a.494.494 0 00.59.525 33.015 33.015 0 0017.981-10.252c2.646-2.936 4.027-5.337 5.734-8.43a.494.494 0 00-.433-.738z" />
        <path d="M18.249 19.069l-.47.432.64.696 1.673-1.54-.64-.695-.373.342-1.163-1.263 3.183.69 1.02-.939-.641-.696-.495.455-1.475-.243c.609-.661.451-1.678-.128-2.306a2.015 2.015 0 00-1.575-.67c-.611.021-1.023.321-1.45.715l-1.947 1.792.64.696.47-.433zm-.406-2.107l-1.45-1.575.574-.528c.232-.214.433-.4.757-.415.324-.028.64.12.854.352.225.244.335.572.28.904-.068.367-.307.61-.563.846zM22.617 16.45l3.725-2.32-.947-1.521-.957.596.425.683-1.26.785-.83-1.331 1.465-.912-.464-.747-1.465.912-.78-1.253 1.26-.785.408.655.958-.596-.943-1.515-3.726 2.32.5.803.55-.342 2.13 3.423-.549.342zM31.99 6.701l.614-.205-.3-.897-2.109.705-.2 4.476-2.853-3.455-2.108.705.3.897.613-.205 1.279 3.823-.614.206.3.897 2.337-.782-.3-.897-.653.219-1.092-3.265 2.989 3.628.755-.253.159-4.68 1.091 3.265-.606.202.3.897 2.29-.765-.3-.897-.614.205zM38.63 10.956l2.492-.154-.059-.944-.629.039-2.377-4.84-1.979.122.059.944.654-.04-1.474 4.13-.63.039.059.944 2.41-.15-.052-.827-.637.04.285-.908 2.078-.128.402.864-.654.04zm-.135-2.585l-1.507.093.628-2.075h.008zM41.65 10.866l2.757.466c.86.145 1.582.048 2.274-.508.592-.472.97-1.165 1.096-1.91.137-.81.008-1.64-.46-2.307-.488-.697-1.09-.975-1.907-1.113l-2.773-.468-.158.932.638.108-.671 3.976-.638-.108zm2.57-4.555l.892.15c.54.092.964.222 1.295.699.295.445.346 1.043.258 1.566-.08.475-.327.988-.708 1.303-.46.376-.954.369-1.51.275l-.876-.148zM47.99 12.073l4.092 1.583.647-1.671-1.052-.407-.29.75L50 11.793l.566-1.463 1.61.623.316-.82-1.609-.623.533-1.377 1.385.536-.279.72 1.053.406.643-1.663-4.093-1.583-.341.882.603.233-1.454 3.76-.604-.233zM55.186 15.368l2.196 1.663c.403.306.797.542 1.325.505.47-.03.914-.286 1.2-.663.425-.562.463-1.23.101-1.838.537.115 1.051-.11 1.377-.54.285-.376.397-.812.268-1.274-.124-.427-.443-.72-.793-.986l-2.096-1.588-.572.754.51.385L56.267 15l-.51-.386zm4.421-2.895l.463.35c.192.146.414.293.499.524a.673.673 0 01-.111.655.673.673 0 01-.552.29c-.286-.009-.48-.177-.699-.343l-.456-.345zm-1.424 1.866l.503.38c.231.176.462.352.549.636a.804.804 0 01-.148.73.776.776 0 01-.655.316c-.28-.014-.533-.217-.745-.377l-.496-.376zM63.037 19.579l3.211-.777.393.44.705-.631-1.52-1.701-.705.63.375.42-2.117.569.796-2.047.365.408.705-.63-1.525-1.707-.705.63.398.445-1.127 3.11-.835.746-.426-.477-.705.63 1.608 1.8.705-.63-.43-.482z"/>
        <path d="M29.285 20.039c-1.275.018-2.502.23-3.68.635a18.987 18.987 0 00-3.852 1.832 23.476 23.476 0 00-3.284 2.4 31.26 31.26 0 00-2.652 2.588c-.337.336-.715.758-1.136 1.263a37.776 37.776 0 00-1.2 1.705c-.084.168-.19.316-.316.442-.084.084-.168.232-.253.442-.589.8-1.136 1.662-1.641 2.588-.506.927-.99 1.916-1.453 2.968a32.612 32.612 0 00-1.452 3.726 29.408 29.408 0 00-.884 3.915v.063c-.042.336-.084.694-.126 1.073v1.074c0 2.188.526 3.936 1.579 5.24 1.052 1.306 2.357 2.127 3.914 2.463.674.295 1.516.421 2.526.38.842-.043 1.915-.233 3.22-.57 1.347-.294 2.905-.925 4.673-1.894 1.852-1.01 3.283-2.062 4.293-3.157.276-.235.517-.454.737-.663.034.092.066.182.11.284.126.295.4.547.82.757l2.21.759h.19c0 .042.042.042.126 0 .126 0 .21-.022.253-.064l.126-.126A121.338 121.338 0 0035.1 46.5c.677-.867 1.284-1.665 1.909-2.48-.195 1.196-.312 2.238-.346 3.111.042.127.084.274.127.442 0 .169.042.337.126.505.21.548.547.926 1.01 1.137.042 0 .085.021.127.063.463.169.905.337 1.326.505.378.126.715.232 1.01.316a.56.56 0 01.252.063c.126 0 .274-.042.442-.126h.063l.126-.126c0-.043.022-.063.064-.063l.063-.064c.8-1.094 1.684-2.315 2.652-3.662l.787-1.097a19.013 19.013 0 00-.282 2.612c.084.8.442 1.326 1.074 1.579.168.084.336.147.505.19.168.042.336.105.505.19h.063l1.452.44c.085.043.21.064.38.064.336 0 .63-.105.883-.316l.19-.189a63.741 63.741 0 005.177-5.999 65.65 65.65 0 004.61-6.756c.295-.547.652-1.2 1.073-1.957.463-.758.821-1.537 1.074-2.337.294-.8.42-1.578.379-2.336-.043-.757-.4-1.389-1.074-1.894a4.353 4.353 0 00-1.578-.821 3.545 3.545 0 00-1.769-.19c-.126 0-.19.064-.19.19v.126c.295.968.17 2.294-.378 3.978-.547 1.642-1.305 3.389-2.273 5.241a62.938 62.938 0 01-3.094 5.367 632.107 632.107 0 01-2.905 4.483 19.792 19.792 0 011.516-4.356 32.412 32.412 0 012.336-4.042c.126-.252.295-.484.506-.695.126-.126.23-.252.315-.378l-.758-.758a9.622 9.622 0 00-.758-.694 4.54 4.54 0 00-.694-.569 5.65 5.65 0 00-.694-.505c-.295-.21-.569-.231-.821-.063a3.257 3.257 0 00-.695.631 35.575 35.575 0 00-2.594 5.016c-.209.244-.412.484-.627.73-.841.969-1.6 1.81-2.273 2.526-.631.716-1.157 1.263-1.578 1.642-.421.379-.61.463-.569.253.169-.758.4-1.516.695-2.274.337-.8.653-1.515.947-2.146.337-.674.653-1.263.948-1.769a50.1 50.1 0 00.63-1.2c.085-.126.106-.231.064-.315 0-.127-.063-.253-.19-.379-.294-.295-.736-.673-1.325-1.136-.548-.505-1.052-.905-1.515-1.2-.043 0-.085-.021-.127-.064a1.04 1.04 0 00-.316.064c-.126 0-.252.084-.378.252-.21.211-.422.527-.632.948l-.505.883-.505.884a20.09 20.09 0 00-1.033 2.179c-.138.14-.257.262-.405.41l-2.336 2.337-2.021 2.02-.884.884c.084-.336.169-.652.253-.947.084-.295.168-.61.252-.947.127-.505.253-.99.379-1.452.168-.505.337-.99.506-1.452.042-.127.084-.232.126-.316a2.45 2.45 0 01.126-.316 49.23 49.23 0 001.894-1.515 21.102 21.102 0 002.21-2.147c.716-.8 1.368-1.663 1.958-2.59.631-.968 1.073-2 1.325-3.094.295-1.305.4-2.377.316-3.22-.042-.883-.19-1.62-.442-2.21a2.992 2.992 0 00-.441-.82 4.748 4.748 0 00-1.58-1.578.486.486 0 00-.188-.065c0-.042-.043-.084-.127-.126-.59-.336-1.094-.357-1.515-.062-.421.294-.737.547-.948.757l-.062.126v.064c-.127.168-.548.862-1.264 2.083-.715 1.221-1.6 3.052-2.651 5.494-.337.8-.653 1.557-.948 2.273a44.81 44.81 0 00-.82 2.147c-.295.884-.59 1.79-.884 2.715a62.3 62.3 0 00-.758 2.778c-.153.587-.289 1.2-.411 1.832-.019.022-.037.035-.056.063v.063c0 .026-.01.04-.026.051l.026-.05-.037.053c-.008.004-.014.01-.026.01v.03l-.19.285c-.084.084-.168.21-.252.379a1.593 1.593 0 01-.19.379c-.379.631-.989 1.43-1.83 2.399-.843.926-1.916 1.852-3.221 2.778-1.22.758-2.252 1.305-3.094 1.642-.842.337-1.579.547-2.21.631-.59.127-1.095.148-1.516.064a20.111 20.111 0 00-1.073-.19c-.842-.126-1.473-.463-1.894-1.01-.379-.547-.652-1.2-.82-1.958a9.492 9.492 0 01-.064-2.462c.084-.884.21-1.726.379-2.526.168-.8.337-1.515.505-2.147l.442-1.325c.463-1.432.989-2.716 1.578-3.853.59-1.136 1.095-2.083 1.516-2.84.842-1.474 1.705-2.737 2.589-3.79a45.869 45.869 0 012.526-2.778c1.726-1.6 3.199-2.61 4.42-3.031 1.263-.463 2.167-.736 2.714-.82h.506c-.884 1.936-1.937 3.41-3.158 4.42-1.178 1.01-2.21 1.746-3.094 2.21-.547.168-.863.168-.947 0h-.126c0-.043-.02-.063-.063-.063h-.063l-.127.126c-.126.084-.23.274-.315.568a2.07 2.07 0 01-.252.316l-.38 1.515c-.126.632.021 1.18.442 1.642.295.295.653.463 1.074.505.42 0 .842-.063 1.263-.19a5.65 5.65 0 001.263-.505c.378-.21.673-.378.884-.505a21.117 21.117 0 003.347-3.03 13.955 13.955 0 002.273-3.663c.547-1.305.841-2.357.883-3.157.085-.842 0-1.494-.252-1.958-.253-.505-.59-.841-1.01-1.01a5.254 5.254 0 00-1.2-.442 12.768 12.768 0 00-.55-.004zm15.73 8.244c-.116 0-.226.01-.332.032-.21.042-.42.126-.63.252-.17.127-.296.316-.38.569-.042.084-.168.4-.379.947a29.305 29.305 0 00-.505 1.705 14.67 14.67 0 00-.252 1.83c0 .548.147.948.442 1.2.42.337.863.485 1.326.442a4.46 4.46 0 001.515-.568c.505-.337.99-.757 1.453-1.262.505-.506.967-1.053 1.388-1.642a.924.924 0 00.19-.569c0-.463-.19-.905-.568-1.326a4.824 4.824 0 00-1.01-.695 4.738 4.738 0 00-.885-.505 4.937 4.937 0 00-1.01-.378 2.214 2.214 0 00-.363-.032zm-5.747.853c.126.505.147 1.094.063 1.767-.042.674-.232 1.431-.568 2.273a10.03 10.03 0 01-1.769 2.716 20.45 20.45 0 01-2.083 2.147 85.606 85.606 0 012.21-4.8 115.158 115.158 0 012.147-4.103zm26.174 5.556c-.337 0-.631.042-.884.126-.295.127-.59.295-.884.505-.673.463-1.284.99-1.831 1.579-.548.547-1.2 1.368-1.958 2.462-.589.8-1.094 1.748-1.515 2.842a10.193 10.193 0 00-.694 3.283 5.016 5.016 0 00.757 2.905c.505.884 1.453 1.495 2.842 1.831.21.042.441.063.694.063.252.042.484.064.695.064.21 0 .421-.022.631-.064.21 0 .421-.02.632-.063.042-.042.126-.063.252-.063.042-.042.106-.063.19-.063l.631-.316a8.233 8.233 0 002.589-1.83c.757-.8 1.263-1.39 1.515-1.77l.126-.125a.99.99 0 00.19-.253.736.736 0 01.126-.19c.169-.168.274-.294.316-.378.084-.127.147-.21.19-.253l.126-.252c.21-.337.42-.653.63-.947.211-.295.422-.61.633-.948.926-1.473 1.599-2.589 2.02-3.346.252-.463.463-.885.632-1.263l-1.579-.063c-1.178 1.978-2.357 3.725-3.536 5.24a62.643 62.643 0 01-1.579 1.895 14.853 14.853 0 01-1.704 1.579 7.3 7.3 0 01-1.642 1.073 2.36 2.36 0 01-1.516.126c-.547-.126-.905-.379-1.073-.758-.38-.42-.4-1.052-.063-1.894.337-.042.883-.169 1.641-.379.8-.21 1.621-.631 2.463-1.262.547-.421 1.031-.863 1.452-1.326a1.98 1.98 0 00.379-.506c.631-.8 1.137-1.62 1.516-2.462.21-.38.316-.674.316-.884a1.582 1.582 0 000-.632.8.8 0 00-.19-.379l-.695-.694c-.21-.21-.484-.463-.82-.758l-.948-.947c-.379-.337-.737-.505-1.073-.505zm1.263 4.294c0 .294-.106.652-.316 1.073-.21.38-.442.737-.694 1.074-.21.336-.674.905-1.39 1.704-.673.758-1.515 1.348-2.525 1.769.084-.085.168-.232.252-.443a12.74 12.74 0 011.39-1.768 349.65 349.65 0 001.515-1.641 35.007 35.007 0 011.768-1.768z" />
        <path d="M42.93 54.406c-.922 0-1.587.704-1.58 1.627h.832c-.02-.42.27-.775.703-.775.374 0 .697.278.697.665 0 .367-.31.632-.555.871L41.369 58.4v.736h3.026V57.91h-.755v.49h-1.18l1.09-1c.465-.425.877-.806.877-1.483 0-.84-.664-1.51-1.497-1.51zM46.933 54.406c-.465 0-.91.201-1.233.537-.355.367-.426.729-.426 1.225v1.29c0 .536.09.917.49 1.291.317.297.736.478 1.169.478.47 0 .91-.207 1.239-.543.354-.367.432-.729.432-1.225v-1.29c0-.536-.097-.917-.497-1.291a1.722 1.722 0 00-1.174-.472zm.006.788c.251 0 .503.103.645.316.149.207.155.42.155.658v1.303c0 .22-.006.42-.122.613-.142.24-.407.355-.678.355-.258 0-.504-.097-.652-.31-.142-.206-.148-.419-.148-.658v-1.303c0-.219 0-.42.123-.613a.774.774 0 01.677-.361zM53.383 54.406c-.917 0-1.723.775-1.723 1.691 0 .839.62 1.62 1.503 1.62a.89.89 0 00.407-.11l-1.148 1.53h1.064l1.233-1.86c.252-.38.38-.67.38-1.135a1.71 1.71 0 00-.528-1.264 1.8 1.8 0 00-1.188-.472zm0 .845c.464 0 .865.381.865.846a.869.869 0 11-1.736 0c0-.465.4-.846.87-.846zM32.469 54.433c-.742 0-1.394.567-1.394 1.328 0 .413.174.762.503 1.007.284.213.568.297.903.394.355.103.788.22.788.677 0 .394-.297.633-.678.633-.425 0-.683-.323-.683-.704h-.8v1.368h.696v-.303c.22.271.53.394.884.394.839 0 1.458-.613 1.458-1.446 0-.387-.16-.73-.457-.968-.297-.226-.633-.322-.988-.42-.355-.102-.755-.199-.755-.65 0-.362.284-.575.626-.575s.594.258.6.6h.787V54.53h-.67v.258c-.194-.252-.504-.354-.82-.354zM27.04 54.53v.735h.504V58.4h-.503v.736h3.413v-1.393h-.878v.626h-1.154v-1.22h1.342v-.684h-1.342v-1.149h1.154v.6h.878V54.53zM34.732 54.53v1.45h.696v-.67h.678v3.09h-.503v.736h1.884V58.4h-.504v-3.09h.678v.67h.697v-1.45zM49.138 54.53v.735h.677V58.4h-.541v.736h1.935V58.4h-.542v-3.87z" />
        <path d="M39.687 0C17.775 0 0 17.775 0 39.688 0 61.6 17.775 79.375 39.687 79.375c21.913 0 39.688-17.775 39.688-39.687C79.375 17.775 61.6 0 39.687 0zm0 .988c21.38 0 38.7 17.32 38.7 38.7 0 21.379-17.32 38.7-38.7 38.7-21.379 0-38.7-17.321-38.7-38.7 0-21.38 17.321-38.7 38.7-38.7z" />
        <path d="M41.647 71.281a1.96 1.96 0 01-1.96 1.96 1.96 1.96 0 01-1.96-1.96 1.96 1.96 0 011.96-1.96 1.96 1.96 0 011.96 1.96z" />
    </g>
</svg>